<svg xmlns="http://www.w3.org/2000/svg" version="1.1" xmlns:xlink="http://www.w3.org/1999/xlink" xmlns:svgjs="http://svgjs.dev/svgjs" width="1440" height="560" preserveAspectRatio="none" viewBox="0 0 1440 560"><g mask="url(&quot;#SvgjsMask1030&quot;)" fill="none"><rect width="1440" height="560" x="0" y="0" fill="#0e2a47"></rect><path d="M383.283,597.425C407.048,597.886,433.049,591.896,444.327,570.973C455.243,550.722,444.284,527.023,431.562,507.855C420.45,491.112,403.324,480.464,383.283,478.997C359.884,477.284,333.576,479.964,320.98,499.758C307.722,520.591,312.93,547.86,326.211,568.679C338.489,587.926,360.457,596.982,383.283,597.425" fill="rgba(28, 83, 142, 0.4)" class="triangle-float2"></path><path d="M776.906,770.326C834,772.561,895.472,757.656,924.34,708.347C953.432,658.657,935.552,598.117,907.002,548.114C878.151,497.583,834.986,453.653,776.906,450.128C712.848,446.24,645.859,473.533,616.24,530.465C588.193,584.377,614.372,647.047,648.192,697.538C677.592,741.43,724.117,768.26,776.906,770.326" fill="rgba(28, 83, 142, 0.4)" class="triangle-float2"></path><path d="M741.347,506.71C772.933,508.396,807.501,503.901,824.928,477.504C843.818,448.89,842.273,410.539,823.983,381.538C806.762,354.231,773.617,344.036,741.347,344.972C710.884,345.855,681.469,359.491,666.612,386.1C652.086,412.117,656.215,444.009,671.91,469.338C686.749,493.285,713.215,505.209,741.347,506.71" fill="rgba(28, 83, 142, 0.4)" class="triangle-float2"></path><path d="M107.156,599.88C133.285,599.531,159.674,591.967,173.953,570.083C189.577,546.138,192.796,515.086,178.721,490.199C164.452,464.969,136.132,451.195,107.156,451.975C79.479,452.72,55.914,469.963,41.963,493.879C27.89,518.004,22.562,548.119,37.194,571.91C51.296,594.839,80.24,600.239,107.156,599.88" fill="rgba(28, 83, 142, 0.4)" class="triangle-float2"></path><path d="M166.232,97.386C185.383,97.776,203.65,89.067,213.934,72.907C225.048,55.443,228.453,33.339,218.565,15.153C208.273,-3.777,187.775,-15.235,166.232,-14.828C145.343,-14.433,126.823,-1.486,117.217,17.068C108.322,34.25,111.703,54.514,121.782,71.03C131.399,86.789,147.774,97.01,166.232,97.386" fill="rgba(28, 83, 142, 0.4)" class="triangle-float3"></path><path d="M36.386,56.396C61.333,57.615,89.23,53.099,101.698,31.457C114.153,9.837,103.853,-16.419,90.465,-37.474C78.241,-56.697,59.113,-69.702,36.386,-71.253C10.32,-73.031,-19.262,-68.549,-32.188,-45.843C-45.033,-23.28,-33.197,4.011,-18.735,25.573C-6.167,44.311,13.85,55.295,36.386,56.396" fill="rgba(28, 83, 142, 0.4)" class="triangle-float3"></path><path d="M1063.249,451.14C1084.065,451.274,1103.063,439.209,1113.096,420.971C1122.785,403.359,1121.918,381.482,1110.772,364.754C1100.663,349.581,1081.451,345.107,1063.249,346.158C1047.03,347.095,1033.293,356.168,1024.371,369.745C1014.258,385.134,1006.566,403.719,1014.503,420.335C1023.382,438.924,1042.648,451.007,1063.249,451.14" fill="rgba(28, 83, 142, 0.4)" class="triangle-float2"></path><path d="M872.832,292.816C921.417,290.303,968.724,270.764,992.879,228.534C1016.882,186.572,1011.268,135.119,986.925,93.353C962.77,51.91,920.715,25.443,872.832,22.569C818.937,19.334,761.824,32.887,732.265,78.069C700.161,127.14,697.041,193.112,729.157,242.176C758.964,287.713,818.48,295.627,872.832,292.816" fill="rgba(28, 83, 142, 0.4)" class="triangle-float3"></path><path d="M4.717,94.557C31.753,94.446,50.653,70.638,63.426,46.81C75.35,24.566,79.846,-1.341,68.097,-23.678C55.531,-47.569,31.689,-65.904,4.717,-64.809C-20.878,-63.769,-38.316,-41.49,-50.333,-18.868C-61.448,2.056,-65.18,25.981,-54.835,47.296C-42.976,71.731,-22.444,94.669,4.717,94.557" fill="rgba(28, 83, 142, 0.4)" class="triangle-float1"></path><path d="M250.548,298.819C273.11,298.862,293.08,286.215,305.21,267.191C318.458,246.413,326.379,220.303,314.31,198.819C302.058,177.01,275.538,168.777,250.548,169.892C227.547,170.918,207.17,184.004,195.932,204.099C184.966,223.707,185.028,247.519,196.25,266.981C207.483,286.462,228.06,298.776,250.548,298.819" fill="rgba(28, 83, 142, 0.4)" class="triangle-float1"></path><path d="M548.667,499.944C595.148,498.592,632.78,468.292,657.893,429.155C685.758,385.73,707.596,333.757,685.102,287.323C660.176,235.869,605.792,201.312,548.667,203.681C494.728,205.918,455.438,249.992,430.518,297.881C407.761,341.613,402.969,393.287,427.853,435.845C452.516,478.025,499.827,501.364,548.667,499.944" fill="rgba(28, 83, 142, 0.4)" class="triangle-float2"></path></g><defs><mask id="SvgjsMask1030"><rect width="1440" height="560" fill="#ffffff"></rect></mask><style>
                @keyframes float1 {
                    0%{transform: translate(0, 0)}
                    50%{transform: translate(-10px, 0)}
                    100%{transform: translate(0, 0)}
                }

                .triangle-float1 {
                    animation: float1 5s infinite;
                }

                @keyframes float2 {
                    0%{transform: translate(0, 0)}
                    50%{transform: translate(-5px, -5px)}
                    100%{transform: translate(0, 0)}
                }

                .triangle-float2 {
                    animation: float2 4s infinite;
                }

                @keyframes float3 {
                    0%{transform: translate(0, 0)}
                    50%{transform: translate(0, -10px)}
                    100%{transform: translate(0, 0)}
                }

                .triangle-float3 {
                    animation: float3 6s infinite;
                }
            </style></defs></svg>